<svg width="29" height="33" xmlns="http://www.w3.org/2000/svg" xmlns:xlink="http://www.w3.org/1999/xlink" xmlns:svgjs="http://svgjs.com/svgjs" fill="#95e1d3"><svg xmlns="http://www.w3.org/2000/svg" width="29" height="33"><path paint-order="stroke fill markers" fill-rule="evenodd" d="M28.5 18.497h-3a1.5 1.5 0 0 1-1.5-1.5v-6A1.5 1.5 0 0 1 25.5 9.5h3a1.5 1.5 0 0 1 1.5 1.499v6a1.5 1.5 0 0 1-1.5 1.5zm-3-15a1.5 1.5 0 0 1 3 0v4.5h-3v-4.5zm-8 23h-3a1.5 1.5 0 0 1-1.5-1.499v-6a1.5 1.5 0 0 1 1.5-1.5h3a1.5 1.5 0 0 1 1.5 1.5v6a1.5 1.5 0 0 1-1.5 1.5zm-3-23a1.5 1.5 0 0 1 3 0v12.501h-3v-12.5zm-8 19h-3a1.5 1.5 0 0 1-1.5-1.5v-6a1.5 1.5 0 0 1 1.5-1.499h3a1.5 1.5 0 0 1 1.5 1.5v6a1.5 1.5 0 0 1-1.5 1.5zm-3-19a1.5 1.5 0 0 1 3 0V12h-3V3.497zm3 29a1.5 1.5 0 1 1-3 0v-8.499h3v8.5zm11 0a1.5 1.5 0 1 1-3 0v-4.5h3v4.5zm11 0a1.5 1.5 0 1 1-3 0V20h3v12.498z"/></svg></svg>