<svg id="SvgjsSvg30076" width="17" height="17" xmlns="http://www.w3.org/2000/svg" version="1.1" xmlns:xlink="http://www.w3.org/1999/xlink" xmlns:svgjs="http://svgjs.com/svgjs" viewBox="0 0 17 17" fill="#95e1d3" opacity="1"><defs id="SvgjsDefs30077"></defs><svg version="1.1" xmlns="http://www.w3.org/2000/svg" xmlns:xlink="http://www.w3.org/1999/xlink" width="17" height="17"><g><path fill="#95e1d3" stroke="none" paint-order="stroke fill markers" fill-rule="evenodd" d=" M 15.999893188476562 17.0149564743042 C 15.999893188476562 17.0149564743042 3.9999618530273438 17.0149564743042 3.9999618530273438 17.0149564743042 C 2.8953781127929688 17.0149564743042 1.9999923706054688 16.119694709777832 1.9999923706054688 15.015220642089844 C 1.9999923706054688 15.015220642089844 1.9999923706054688 3.015017509460449 1.9999923706054688 3.015017509460449 C 1.9999923706054688 1.909947395324707 2.8953781127929688 1.0146856307983398 3.9999618530273438 1.0146856307983398 C 3.9999618530273438 1.0146856307983398 15.999893188476562 1.0146856307983398 15.999893188476562 1.0146856307983398 C 17.104591369628906 1.0146856307983398 17.999977111816406 1.909947395324707 17.999977111816406 3.015017509460449 C 17.999977111816406 3.015017509460449 17.999977111816406 15.015220642089844 17.999977111816406 15.015220642089844 C 17.999977111816406 16.119694709777832 17.104591369628906 17.0149564743042 15.999893188476562 17.0149564743042 Z M 9.999984741210938 5.914783477783203 C 8.752693176269531 5.914783477783203 7.6804962158203125 6.653285026550293 7.188514709472656 7.71484375 C 7.188514709472656 7.71484375 7.185768127441406 7.71484375 7.185768127441406 7.71484375 C 7.1806182861328125 7.726168632507324 7.177070617675781 7.738089561462402 7.172035217285156 7.749414443969727 C 7.1426239013671875 7.814383506774902 7.116645812988281 7.882332801818848 7.091697692871094 7.950282096862793 C 7.079795837402344 7.982468605041504 7.066978454589844 8.014059066772461 7.0561065673828125 8.04743766784668 C 7.0332183837890625 8.117175102233887 7.0144500732421875 8.188104629516602 6.9965972900390625 8.25963020324707 C 6.988128662109375 8.293008804321289 6.978172302246094 8.325791358947754 6.970733642578125 8.359766006469727 C 6.9544830322265625 8.435463905334473 6.943153381347656 8.512353897094727 6.9325103759765625 8.589839935302734 C 6.92816162109375 8.620834350585938 6.921638488769531 8.65182876586914 6.918205261230469 8.683419227600098 C 6.906646728515625 8.792495727539062 6.9000091552734375 8.902764320373535 6.9000091552734375 9.01482105255127 C 6.9000091552734375 10.727262496948242 8.287834167480469 12.114858627319336 9.999984741210938 12.114858627319336 C 11.712020874023438 12.114858627319336 13.099960327148438 10.727262496948242 13.099960327148438 9.01482105255127 C 13.099960327148438 8.902764320373535 13.09332275390625 8.792495727539062 13.081649780273438 8.683419227600098 C 13.078330993652344 8.65182876586914 13.071807861328125 8.620834350585938 13.067459106445312 8.589839935302734 C 13.05670166015625 8.512353897094727 13.045372009277344 8.435463905334473 13.029121398925781 8.359766006469727 C 13.021797180175781 8.325791358947754 13.0118408203125 8.293008804321289 13.003372192382812 8.25963020324707 C 12.985404968261719 8.188104629516602 12.966636657714844 8.117175102233887 12.943862915039062 8.04743766784668 C 12.932991027832031 8.014059066772461 12.920173645019531 7.982468605041504 12.908271789550781 7.950282096862793 C 12.883323669433594 7.882332801818848 12.857231140136719 7.814383506774902 12.82781982421875 7.749414443969727 C 12.822898864746094 7.738089561462402 12.819351196289062 7.726168632507324 12.814201354980469 7.71484375 C 12.814201354980469 7.71484375 12.81134033203125 7.71484375 12.81134033203125 7.71484375 C 12.319473266601562 6.653285026550293 11.247161865234375 5.914783477783203 9.999984741210938 5.914783477783203 Z M 16.199935913085938 3.615236282348633 C 16.199935913085938 3.1729698181152344 15.841850280761719 2.8153419494628906 15.399993896484375 2.8153419494628906 C 15.399993896484375 2.8153419494628906 13.799995422363281 2.8153419494628906 13.799995422363281 2.8153419494628906 C 13.358139038085938 2.8153419494628906 12.99993896484375 3.1729698181152344 12.99993896484375 3.615236282348633 C 12.99993896484375 3.615236282348633 12.99993896484375 5.215024948120117 12.99993896484375 5.215024948120117 C 12.99993896484375 5.656695365905762 13.358139038085938 6.014919281005859 13.799995422363281 6.014919281005859 C 13.799995422363281 6.014919281005859 15.399993896484375 6.014919281005859 15.399993896484375 6.014919281005859 C 15.841850280761719 6.014919281005859 16.199935913085938 5.656695365905762 16.199935913085938 5.215024948120117 C 16.199935913085938 5.215024948120117 16.199935913085938 3.615236282348633 16.199935913085938 3.615236282348633 Z M 16.199935913085938 7.71484375 C 16.199935913085938 7.71484375 14.725250244140625 7.71484375 14.725250244140625 7.71484375 C 14.838890075683594 8.129096031188965 14.900001525878906 8.56480598449707 14.900001525878906 9.01482105255127 C 14.900001525878906 11.720871925354004 12.706169128417969 13.914918899536133 9.999984741210938 13.914918899536133 C 7.293800354003906 13.914918899536133 5.099967956542969 11.720871925354004 5.099967956542969 9.01482105255127 C 5.099967956542969 8.56480598449707 5.1609649658203125 8.129096031188965 5.27471923828125 7.71484375 C 5.27471923828125 7.71484375 3.7999191284179688 7.71484375 3.7999191284179688 7.71484375 C 3.7999191284179688 7.71484375 3.7999191284179688 14.41500186920166 3.7999191284179688 14.41500186920166 C 3.7999191284179688 14.856672286987305 4.158119201660156 15.214896202087402 4.5999755859375 15.214896202087402 C 4.5999755859375 15.214896202087402 15.399993896484375 15.214896202087402 15.399993896484375 15.214896202087402 C 15.841850280761719 15.214896202087402 16.199935913085938 14.856672286987305 16.199935913085938 14.41500186920166 C 16.199935913085938 14.41500186920166 16.199935913085938 7.71484375 16.199935913085938 7.71484375 Z"></path></g></svg></svg>