<svg width="31" height="31" xmlns="http://www.w3.org/2000/svg" xmlns:xlink="http://www.w3.org/1999/xlink" xmlns:svgjs="http://svgjs.com/svgjs" fill="#95e1d3"><svg xmlns="http://www.w3.org/2000/svg" width="31" height="31"><path paint-order="stroke fill markers" fill-rule="evenodd" d="M32 25.999c0 .65-.419 1.2-1 1.407v1.683a1.496 1.496 0 1 1-1.908 1.909h-1.684c-.207.58-.756 1-1.408 1-.652 0-1.202-.42-1.408-1h-1.684c-.207.58-.756 1-1.408 1-.652 0-1.201-.42-1.408-1h-1.684c-.207.58-.756 1-1.408 1-.652 0-1.202-.42-1.408-1h-1.684c-.206.58-.756 1-1.408 1-.652 0-1.202-.42-1.408-1H9.408c-.206.58-.756 1-1.408 1-.652 0-1.202-.42-1.408-1H4.908c-.207.58-.756 1-1.408 1a1.496 1.496 0 1 1-.5-2.91v-1.682C2.419 27.2 2 26.65 2 26c0-.654.419-1.202 1-1.41v-1.682c-.581-.208-1-.757-1-1.409 0-.651.419-1.201 1-1.408v-1.684c-.581-.206-1-.755-1-1.407s.419-1.202 1-1.41v-1.683c-.581-.206-1-.755-1-1.408 0-.652.419-1.202 1-1.407V9.406C2.419 9.2 2 8.65 2 7.998c0-.652.419-1.202 1-1.408V4.905C2.419 4.7 2 4.15 2 3.498c0-.829.672-1.5 1.5-1.5.652 0 1.201.418 1.408 1h1.684c.206-.582.756-1 1.408-1 .652 0 1.202.418 1.408 1h1.684c.206-.582.756-1 1.408-1 .652 0 1.202.418 1.408 1h1.684c.206-.582.756-1 1.408-1 .652 0 1.201.418 1.408 1h1.684c.207-.582.756-1 1.408-1 .652 0 1.201.418 1.408 1h1.684c.206-.582.756-1 1.408-1 .652 0 1.201.418 1.408 1h1.684c.206-.582.756-1 1.408-1 .828 0 1.5.671 1.5 1.5 0 .652-.419 1.202-1 1.407V6.59c.581.206 1 .756 1 1.408 0 .652-.419 1.201-1 1.408v1.685c.581.205 1 .755 1 1.407 0 .653-.419 1.202-1 1.408v1.683c.581.208 1 .758 1 1.41 0 .652-.419 1.201-1 1.407v1.684c.581.207 1 .757 1 1.408 0 .652-.419 1.2-1 1.409v1.683c.581.207 1 .755 1 1.409zM28 5.997H6v22.001h22v-22zm-13 16l7-8.498 4.5 7v6h-19l6-6 1.5 1.499zm-3-6.999a3 3 0 1 1 0-6 3 3 0 0 1 0 6z"/></svg></svg>