<svg id="SvgjsSvg25760" width="9" height="17" xmlns="http://www.w3.org/2000/svg" version="1.1" xmlns:xlink="http://www.w3.org/1999/xlink" xmlns:svgjs="http://svgjs.com/svgjs" viewBox="0 0 9 17" fill="#95e1d3" opacity="1"><defs id="SvgjsDefs25761"></defs><svg version="1.1" xmlns="http://www.w3.org/2000/svg" xmlns:xlink="http://www.w3.org/1999/xlink" width="9" height="17"><g><path fill="#95e1d3" stroke="none" paint-order="stroke fill markers" fill-rule="evenodd" d=" M 8.9932861328125 2.01468563079834 C 8.9932861328125 2.9373655319213867 8.9932861328125 4.590202331542969 8.9932861328125 4.590202331542969 C 8.9932861328125 4.590202331542969 7.094825744628906 4.4012556076049805 6.61932373046875 5.128432273864746 C 6.359428405761719 5.5265913009643555 6.513694763183594 6.690670013427734 6.490692138671875 7.526923179626465 C 7.3194732666015625 7.526923179626465 8.1802978515625 7.526923179626465 9.008964538574219 7.526923179626465 C 8.795989990234375 8.505035400390625 8.6435546875 9.167243003845215 8.48699951171875 10.013628959655762 C 7.769798278808594 10.013628959655762 6.476615905761719 10.013628959655762 6.476615905761719 10.013628959655762 C 6.476615905761719 10.013628959655762 6.476615905761719 18.016148567199707 6.476615905761719 18.016148567199707 C 6.476615905761719 18.016148567199707 4.103569030761719 18.016148567199707 2.9879989624023438 18.016148567199707 C 2.9886856079101562 15.549112319946289 2.9874267578125 12.670804023742676 2.9879989624023438 10.045219421386719 C 2.4461212158203125 10.045219421386719 2.04534912109375 10.045219421386719 1.5035858154296875 10.045219421386719 C 1.5035858154296875 9.121943473815918 1.5035858154296875 8.450199127197266 1.5035858154296875 7.526923179626465 C 2.029327392578125 7.526923179626465 2.4455490112304688 7.526923179626465 2.9716339111328125 7.526923179626465 C 3.04693603515625 5.685735702514648 3.0752029418945312 3.8618335723876953 3.9897003173828125 2.9331932067871094 C 5.017608642578125 1.8889198303222656 5.9979095458984375 2.01468563079834 8.9932861328125 2.01468563079834 Z"></path></g></svg></svg>