<svg id="SvgjsSvg27663" width="17" height="15" xmlns="http://www.w3.org/2000/svg" version="1.1" xmlns:xlink="http://www.w3.org/1999/xlink" xmlns:svgjs="http://svgjs.com/svgjs" viewBox="0 0 17 15" fill="#95e1d3" opacity="1"><defs id="SvgjsDefs27664"></defs><svg version="1.1" xmlns="http://www.w3.org/2000/svg" xmlns:xlink="http://www.w3.org/1999/xlink" width="17" height="15"><g><path fill="#95e1d3" stroke="none" paint-order="stroke fill markers" fill-rule="evenodd" d=" M 12.882865905761719 1.5155305862426758 C 14.154304504394531 1.4934768676757812 14.83099365234375 1.9566049575805664 15.477470397949219 2.545498847961426 C 16.026100158691406 2.498411178588867 16.739181518554688 2.1920433044433594 17.1591796875 1.978658676147461 C 17.295249938964844 1.9041528701782227 17.431434631347656 1.8296470642089844 17.5675048828125 1.755141258239746 C 17.32763671875 2.403639793395996 17.002395629882812 2.9108753204345703 16.502403259277344 3.2959213256835938 C 16.391510009765625 3.3817520141601562 16.28130340576172 3.497385025024414 16.14214324951172 3.5516252517700195 C 16.14214324951172 3.554605484008789 16.14214324951172 3.5569896697998047 16.14214324951172 3.5593738555908203 C 16.85442352294922 3.5522212982177734 17.44196319580078 3.230952262878418 17.999977111816406 3.0569067001342773 C 17.999977111816406 3.059290885925293 17.999977111816406 3.0616750717163086 17.999977111816406 3.064655303955078 C 17.706893920898438 3.530763626098633 17.31012725830078 4.0034284591674805 16.886810302734375 4.341982841491699 C 16.716064453125 4.47788143157959 16.545089721679688 4.613183975219727 16.374343872070312 4.749082565307617 C 16.38372802734375 5.5036773681640625 16.363243103027344 6.223105430603027 16.222251892089844 6.85670280456543 C 15.402397155761719 10.542057991027832 13.230308532714844 13.043068885803223 9.791816711425781 14.114164352416992 C 8.556999206542969 14.499210357666016 6.5617218017578125 14.657758712768555 5.147117614746094 14.30609130859375 C 4.445594787597656 14.13204574584961 3.8118209838867188 13.93535041809082 3.2171859741210938 13.675474166870117 C 2.8869094848632812 13.530634880065918 2.5808944702148438 13.375066757202148 2.28826904296875 13.196252822875977 C 2.192138671875 13.137840270996094 2.09600830078125 13.079427719116211 1.9999923706054688 13.020419120788574 C 2.3190536499023438 13.029955863952637 2.6923599243164062 13.118170738220215 3.049072265625 13.060354232788086 C 3.371795654296875 13.008498191833496 3.6882247924804688 13.022207260131836 3.9858856201171875 12.956642150878906 C 4.728492736816406 12.79392147064209 5.387786865234375 12.57874870300293 5.95587158203125 12.24615478515625 C 6.2312164306640625 12.085222244262695 6.6491546630859375 11.896275520324707 6.8448486328125 11.663817405700684 C 6.476005554199219 11.669777870178223 6.1417236328125 11.584543228149414 5.867866516113281 11.487983703613281 C 4.80596923828125 11.113070487976074 4.187873840332031 10.423444747924805 3.7857284545898438 9.38811206817627 C 4.107536315917969 9.42327880859375 5.034393310546875 9.50732135772705 5.251258850097656 9.324335098266602 C 4.846138000488281 9.301685333251953 4.456581115722656 9.067439079284668 4.1781463623046875 8.892797470092773 C 3.3239593505859375 8.358739852905273 2.6273574829101562 7.4616899490356445 2.6326217651367188 6.0824384689331055 C 2.744659423828125 6.135486602783203 2.8568115234375 6.189130783081055 2.968963623046875 6.242178916931152 C 3.1834259033203125 6.332777976989746 3.4016647338867188 6.3810577392578125 3.6576690673828125 6.43410587310791 C 3.7657012939453125 6.456159591674805 3.9818801879882812 6.519936561584473 4.106048583984375 6.473444938659668 C 4.1007843017578125 6.473444938659668 4.095405578613281 6.473444938659668 4.09002685546875 6.473444938659668 C 3.924774169921875 6.28151798248291 3.6554946899414062 6.15336799621582 3.48944091796875 5.947135925292969 C 2.9413833618164062 5.2652587890625 2.427886962890625 4.217409133911133 2.7527847290039062 2.968691825866699 C 2.8351821899414062 2.652191162109375 2.9658737182617188 2.372645378112793 3.1050338745117188 2.1145572662353516 C 3.11041259765625 2.116941452026367 3.1157913208007812 2.1199216842651367 3.1210556030273438 2.1229019165039062 C 3.1847991943359375 2.2558202743530273 3.3271636962890625 2.354167938232422 3.4173431396484375 2.4656286239624023 C 3.697265625 2.812527656555176 4.042533874511719 3.1248559951782227 4.394325256347656 3.3996334075927734 C 5.5930938720703125 4.337214469909668 6.672615051269531 4.913591384887695 8.406394958496094 5.340360641479492 C 8.84619140625 5.448245048522949 9.354537963867188 5.530499458312988 9.87982177734375 5.531691551208496 C 9.732307434082031 5.10194206237793 9.779685974121094 4.406355857849121 9.895843505859375 3.9909114837646484 C 10.188011169433594 2.944849967956543 10.822700500488281 2.1908512115478516 11.753791809082031 1.787327766418457 C 11.97637939453125 1.6907682418823242 12.223228454589844 1.6204347610473633 12.482437133789062 1.5638103485107422 C 12.615875244140625 1.5477170944213867 12.749427795410156 1.5316238403320312 12.882865905761719 1.5155305862426758 Z"></path></g></svg></svg>